<mxfile host="app.diagrams.net" modified="2024-02-07T13:00:53.805Z" agent="Mozilla/5.0 (Macintosh; Intel Mac OS X 10_15_7) AppleWebKit/537.36 (KHTML, like Gecko) Chrome/121.0.0.0 Safari/537.36" version="23.1.1" etag="8H7UA5s-jLfdFDgTYZOI" type="github">
  <diagram name="Page-1" id="H4LgRISeGsXew1nHF3EY">
    <mxGraphModel>
      <root>
        <mxCell id="0" />
        <mxCell id="1" parent="0" />
      </root>
    </mxGraphModel>
  </diagram>
</mxfile>
